<mxfile host="app.diagrams.net" modified="2024-07-16T14:32:01.460Z" agent="Mozilla/5.0 (Windows NT 10.0; Win64; x64) AppleWebKit/537.36 (KHTML, like Gecko) Chrome/126.0.0.0 Safari/537.36 Edg/126.0.0.0" etag="PRIMD7z0gBmR8EPaP1Bc" version="24.6.4" type="github">
  <diagram name="Page-1" id="j2qQqPwbAOlci40hsHru">
    <mxGraphModel dx="2026" dy="385" grid="0" gridSize="10" guides="1" tooltips="1" connect="1" arrows="1" fold="1" page="0" pageScale="1" pageWidth="850" pageHeight="1100" math="0" shadow="0">
      <root>
        <mxCell id="0" />
        <mxCell id="1" parent="0" />
        <mxCell id="f-o0DiPll_gJBIn89hW--4" style="edgeStyle=none;curved=1;rounded=0;orthogonalLoop=1;jettySize=auto;html=1;exitX=0.5;exitY=0.5;exitDx=0;exitDy=23;exitPerimeter=0;fontSize=12;startSize=8;endSize=8;" parent="1" source="f-o0DiPll_gJBIn89hW--1" target="f-o0DiPll_gJBIn89hW--3" edge="1">
          <mxGeometry relative="1" as="geometry" />
        </mxCell>
        <mxCell id="f-o0DiPll_gJBIn89hW--1" value="START" style="html=1;dashed=0;whiteSpace=wrap;shape=mxgraph.dfd.start" parent="1" vertex="1">
          <mxGeometry x="167" y="420" width="159" height="46" as="geometry" />
        </mxCell>
        <mxCell id="f-o0DiPll_gJBIn89hW--34" value="" style="edgeStyle=none;curved=1;rounded=0;orthogonalLoop=1;jettySize=auto;html=1;fontSize=12;startSize=8;endSize=8;" parent="1" source="f-o0DiPll_gJBIn89hW--3" target="f-o0DiPll_gJBIn89hW--33" edge="1">
          <mxGeometry relative="1" as="geometry" />
        </mxCell>
        <mxCell id="f-o0DiPll_gJBIn89hW--3" value="OBTAIN A NUMBER number&lt;div&gt;&#39;please insert a number: &#39;&lt;/div&gt;&lt;div&gt;&#39;or quit [Q]&#39;&lt;/div&gt;" style="shape=parallelogram;perimeter=parallelogramPerimeter;whiteSpace=wrap;html=1;dashed=0;size=0.1056547619047619;" parent="1" vertex="1">
          <mxGeometry x="120.5" y="529" width="252" height="76" as="geometry" />
        </mxCell>
        <mxCell id="f-o0DiPll_gJBIn89hW--16" style="edgeStyle=none;curved=1;rounded=0;orthogonalLoop=1;jettySize=auto;html=1;exitX=0.5;exitY=1;exitDx=0;exitDy=0;entryX=0.5;entryY=0;entryDx=0;entryDy=0;fontSize=12;startSize=8;endSize=8;" parent="1" source="f-o0DiPll_gJBIn89hW--5" target="f-o0DiPll_gJBIn89hW--6" edge="1">
          <mxGeometry relative="1" as="geometry" />
        </mxCell>
        <mxCell id="f-o0DiPll_gJBIn89hW--5" value="n = 0" style="html=1;dashed=0;whiteSpace=wrap;" parent="1" vertex="1">
          <mxGeometry x="173.5" y="860" width="146" height="36" as="geometry" />
        </mxCell>
        <mxCell id="f-o0DiPll_gJBIn89hW--17" style="edgeStyle=none;curved=1;rounded=0;orthogonalLoop=1;jettySize=auto;html=1;exitX=0.5;exitY=1;exitDx=0;exitDy=0;entryX=0.5;entryY=0;entryDx=0;entryDy=0;fontSize=12;startSize=8;endSize=8;" parent="1" source="f-o0DiPll_gJBIn89hW--6" target="f-o0DiPll_gJBIn89hW--7" edge="1">
          <mxGeometry relative="1" as="geometry" />
        </mxCell>
        <mxCell id="f-o0DiPll_gJBIn89hW--6" value="n + 1" style="html=1;dashed=0;whiteSpace=wrap;" parent="1" vertex="1">
          <mxGeometry x="173.5" y="919" width="146" height="36" as="geometry" />
        </mxCell>
        <mxCell id="f-o0DiPll_gJBIn89hW--27" style="edgeStyle=none;curved=1;rounded=0;orthogonalLoop=1;jettySize=auto;html=1;fontSize=12;startSize=8;endSize=8;entryX=0.5;entryY=1;entryDx=0;entryDy=0;" parent="1" source="f-o0DiPll_gJBIn89hW--7" target="f-o0DiPll_gJBIn89hW--26" edge="1">
          <mxGeometry relative="1" as="geometry">
            <mxPoint x="486" y="1053.5" as="targetPoint" />
            <Array as="points">
              <mxPoint x="472" y="1066" />
            </Array>
          </mxGeometry>
        </mxCell>
        <mxCell id="f-o0DiPll_gJBIn89hW--36" value="" style="edgeStyle=none;curved=1;rounded=0;orthogonalLoop=1;jettySize=auto;html=1;fontSize=12;startSize=8;endSize=8;" parent="1" source="f-o0DiPll_gJBIn89hW--7" target="f-o0DiPll_gJBIn89hW--9" edge="1">
          <mxGeometry relative="1" as="geometry" />
        </mxCell>
        <mxCell id="f-o0DiPll_gJBIn89hW--7" value="n&amp;nbsp; &amp;lt;= number" style="shape=rhombus;html=1;dashed=0;whiteSpace=wrap;perimeter=rhombusPerimeter;" parent="1" vertex="1">
          <mxGeometry x="187.5" y="998" width="118" height="111" as="geometry" />
        </mxCell>
        <mxCell id="f-o0DiPll_gJBIn89hW--15" style="edgeStyle=none;curved=1;rounded=0;orthogonalLoop=1;jettySize=auto;html=1;exitX=0.5;exitY=1;exitDx=0;exitDy=0;fontSize=12;startSize=8;endSize=8;" parent="1" source="f-o0DiPll_gJBIn89hW--8" target="f-o0DiPll_gJBIn89hW--5" edge="1">
          <mxGeometry relative="1" as="geometry" />
        </mxCell>
        <mxCell id="f-o0DiPll_gJBIn89hW--8" value="if Q" style="shape=rhombus;html=1;dashed=0;whiteSpace=wrap;perimeter=rhombusPerimeter;" parent="1" vertex="1">
          <mxGeometry x="195" y="731" width="103" height="105" as="geometry" />
        </mxCell>
        <mxCell id="f-o0DiPll_gJBIn89hW--9" value="END" style="html=1;dashed=0;whiteSpace=wrap;shape=mxgraph.dfd.start" parent="1" vertex="1">
          <mxGeometry x="170.25" y="1180" width="152.5" height="63" as="geometry" />
        </mxCell>
        <mxCell id="f-o0DiPll_gJBIn89hW--30" style="edgeStyle=none;curved=1;rounded=0;orthogonalLoop=1;jettySize=auto;html=1;exitX=0;exitY=0.5;exitDx=0;exitDy=0;entryX=1;entryY=0.5;entryDx=0;entryDy=0;fontSize=12;startSize=8;endSize=8;" parent="1" source="f-o0DiPll_gJBIn89hW--26" target="f-o0DiPll_gJBIn89hW--6" edge="1">
          <mxGeometry relative="1" as="geometry" />
        </mxCell>
        <mxCell id="f-o0DiPll_gJBIn89hW--26" value="log &quot;n * number = &quot; n * number" style="shape=parallelogram;perimeter=parallelogramPerimeter;whiteSpace=wrap;html=1;dashed=0;size=0.08501259445843828;" parent="1" vertex="1">
          <mxGeometry x="393" y="907" width="198.5" height="60" as="geometry" />
        </mxCell>
        <mxCell id="f-o0DiPll_gJBIn89hW--31" style="edgeStyle=none;curved=1;rounded=0;orthogonalLoop=1;jettySize=auto;html=1;exitX=0;exitY=0.5;exitDx=0;exitDy=0;entryX=0;entryY=0.5;entryDx=0;entryDy=0;entryPerimeter=0;fontSize=12;startSize=8;endSize=8;" parent="1" source="f-o0DiPll_gJBIn89hW--8" target="f-o0DiPll_gJBIn89hW--9" edge="1">
          <mxGeometry relative="1" as="geometry">
            <Array as="points">
              <mxPoint x="61" y="773" />
              <mxPoint x="-7" y="963" />
              <mxPoint x="7" y="1234" />
            </Array>
          </mxGeometry>
        </mxCell>
        <mxCell id="f-o0DiPll_gJBIn89hW--35" value="" style="edgeStyle=none;curved=1;rounded=0;orthogonalLoop=1;jettySize=auto;html=1;fontSize=12;startSize=8;endSize=8;" parent="1" source="f-o0DiPll_gJBIn89hW--33" target="f-o0DiPll_gJBIn89hW--8" edge="1">
          <mxGeometry relative="1" as="geometry" />
        </mxCell>
        <mxCell id="f-o0DiPll_gJBIn89hW--33" value="log &#39;your NUMBER is&#39; number" style="shape=parallelogram;perimeter=parallelogramPerimeter;whiteSpace=wrap;html=1;dashed=0;" parent="1" vertex="1">
          <mxGeometry x="135.75" y="634" width="221.5" height="68" as="geometry" />
        </mxCell>
      </root>
    </mxGraphModel>
  </diagram>
</mxfile>
